# xmcd CD database file
#
# Track frame offsets:
#	150
#	14628
#	33773
#	54756
#	75929
#	90212
#	122087
#	138891
#	156899
#	170665
#	190395
#	213003
#	232889
#	252752
#	266107
#	284804
#	300536
#	315640
#	333520
#	351149
#
# Disc length: 4791 seconds
#
# Revision: 0
# Processed by: cddbd v1.5.1PL0 Copyright (c) Steve Scherf et al.
# Submitted via: CDex 1.51
#
DISCID=0b12b514
DTITLE=Groove Juice - Bonjour Paris!
DYEAR=2005
DGENRE=Jazz
TTITLE0=Bonjour Paris!
TTITLE1=C'est Magnifique
TTITLE2=Nuages
TTITLE3=Paris Without You
TTITLE4=Paris - Tour - Eiffel
TTITLE5=Melancolie
TTITLE6=Paris Au Petit Jour
TTITLE7=C'est Si Bon
TTITLE8=La Vie En Rose
TTITLE9=Les Feuilles Mortes
TTITLE10=Farewell To Paris
TTITLE11=Paris Canaille
TTITLE12=Lazy In Paris
TTITLE13=Paris Bounce
TTITLE14=An American In Paris
TTITLE15=I Love Paris
TTITLE16=La Plus Belle Parisienne
TTITLE17=J'M'En Fous Pas Mal
TTITLE18=Promenade Aux Champs-Elysées
TTITLE19=The Last Time I Saw Paris
EXTD=YEAR: 2005
EXTT0=
EXTT1=
EXTT2=
EXTT3=
EXTT4=
EXTT5=
EXTT6=
EXTT7=
EXTT8=
EXTT9=
EXTT10=
EXTT11=
EXTT12=
EXTT13=
EXTT14=
EXTT15=
EXTT16=
EXTT17=
EXTT18=
EXTT19=
PLAYORDER=
